<svg xmlns="http://www.w3.org/2000/svg" width="50" height="50" viewBox="0 0 50 50">
  <g fill="none" fill-rule="evenodd">
    <rect width="48" height="48" x="1" y="1" stroke="#377DFF" stroke-width="2" rx="8"/>
    <path fill="#377DFF" d="M10.8823529,10 C10.3956824,10 10,10.3943059 10,10.8823529 L10,39.1176471 C10,39.6043176 10.3956824,40 10.8823529,40 L17.9411765,40 C18.4278471,40 18.8235294,39.6043176 18.8235294,39.1176471 L18.8235294,10.8823529 C18.8235294,10.3943059 18.4278471,10 17.9411765,10 L10.8823529,10 Z M21.4705882,10 C20.9839176,10 20.5882353,10.3943059 20.5882353,10.8823529 L20.5882353,39.1176471 C20.5882353,39.6043176 20.9839176,40 21.4705882,40 L28.5294118,40 C29.0160824,40 29.4117647,39.6043176 29.4117647,39.1176471 L29.4117647,10.8823529 C29.4117647,10.3943059 29.0160824,10 28.5294118,10 L21.4705882,10 Z M32.0588235,10 C31.5721529,10 31.1764706,10.3943059 31.1764706,10.8823529 L31.1764706,39.1176471 C31.1764706,39.6043176 31.5721529,40 32.0588235,40 L39.1176471,40 C39.6043176,40 40,39.6043176 40,39.1176471 L40,10.8823529 C40,10.3943059 39.6043176,10 39.1176471,10 L32.0588235,10 Z M11.7647059,11.7647059 L17.0588235,11.7647059 L17.0588235,38.2352941 L11.7647059,38.2352941 L11.7647059,11.7647059 Z M22.3529412,11.7647059 L27.6470588,11.7647059 L27.6470588,38.2352941 L22.3529412,38.2352941 L22.3529412,11.7647059 Z M32.9411765,11.7647059 L38.2352941,11.7647059 L38.2352941,38.2352941 L32.9411765,38.2352941 L32.9411765,11.7647059 Z" transform="rotate(90 25 25)"/>
  </g>
</svg>
