<svg xmlns="http://www.w3.org/2000/svg" width="50" height="50" viewBox="0 0 50 50">
  <g fill="none" fill-rule="evenodd">
    <rect width="48" height="48" x="1" y="1" stroke="#377DFF" stroke-width="2" rx="8"/>
    <path fill="#377DFF" stroke="#377DFF" d="M25.0001691,12.0003439 C22.6981021,12.0003439 20.390835,12.8802475 18.6355014,14.6558357 C17.2735345,16.0336229 16.4623344,17.7578547 16.1563343,19.5453126 C12.6706671,20.1182919 10,23.1557698 10,26.8373773 C10,30.9259916 13.2916672,34.2559658 17.3333345,34.2559658 L21,34.2559658 C21.1783885,34.2585275 21.3502685,34.1887159 21.4778685,34.0609488 C21.6041719,33.9344968 21.6757852,33.7619421 21.6757852,33.5814766 C21.6757852,33.4010111 21.6041719,33.2271413 21.4778685,33.1006893 C21.3502652,32.9742373 21.1783885,32.9044257 21,32.9070592 L17.3333345,32.9070592 C14.011734,32.9070592 11.3333336,30.1975472 11.3333336,26.8373638 C11.3333336,23.6641944 13.7226673,21.0694671 16.7813344,20.7885751 C17.0951378,20.7609141 17.3477345,20.5145958 17.3855012,20.1984658 C17.5782079,18.5229601 18.299568,16.9028235 19.5730016,15.6144969 C21.0717018,14.0983881 23.0366688,13.3488819 25,13.3488819 C26.9633361,13.3488819 28.9166697,14.097073 30.41667,15.6144969 C32.1510369,17.3690098 32.8750037,19.7506571 32.6041703,22.031851 C32.5807337,22.2241626 32.639327,22.4190976 32.7669304,22.5639947 C32.8945337,22.7088885 33.0781271,22.7918713 33.2708305,22.7905562 L33.6666638,22.7905562 C36.447931,22.7905562 38.6666647,25.0350621 38.6666647,27.8486357 C38.6666647,30.6622094 36.447931,32.9067153 33.6666638,32.9067153 L29,32.9067153 C28.8216097,32.9040817 28.6497297,32.9738933 28.5221297,33.1003453 C28.3958263,33.2267973 28.324213,33.4006671 28.324213,33.5811326 C28.324213,33.7615982 28.3958263,33.9341529 28.5221297,34.0606049 C28.649733,34.1883753 28.8216097,34.2581869 29,34.25555 L33.6666638,34.25555 C37.1639978,34.25555 40,31.3866747 40,27.8486492 C40,24.4040971 37.3059978,21.6194557 33.9373306,21.4734458 C34.0349872,19.0195016 33.2016638,16.5246208 31.3539968,14.6554918 C29.6000965,12.8812186 27.3019961,12 25,12 L25.0001691,12.0003439 Z M25.0001691,28.1861985 C24.631669,28.1861985 24.3335023,28.4878387 24.3335023,28.8606091 L24.3335023,38.8081655 L21.7814352,36.4582492 C21.5223219,36.219835 21.0692018,36.2369582 20.8335018,36.5003999 C20.5978017,36.7638415 20.6121484,37.2182762 20.8855851,37.4593443 L24.5522524,40.8313973 C24.6473057,40.9196507 24.8217824,40.996048 25.0001858,41 C25.1772691,41 25.3009658,40.9670699 25.4481192,40.8313973 L29.1147864,37.4593443 C29.3752032,37.2222485 29.4233798,36.7599131 29.1668698,36.5003999 C28.9194731,36.2501295 28.4780697,36.219835 28.2189363,36.4582492 L25.6668692,38.8081655 L25.6668692,28.8606091 C25.6668692,28.4878286 25.3686925,28.1861985 25.0002024,28.1861985 L25.0001691,28.1861985 Z"/>
  </g>
</svg>
