<svg xmlns="http://www.w3.org/2000/svg" width="50" height="50" viewBox="0 0 50 50">
  <g fill="none" fill-rule="evenodd">
    <rect width="48" height="48" x="1" y="1" stroke="#377DFF" stroke-width="2" rx="8"/>
    <g fill="#377DFF" transform="translate(8 8)">
      <path d="M33.7965127,11.4843758 L29.3857833,11.4843758 L28.6566165,6.27046918 C28.5839842,5.72359414 28.0726998,5.32196911 27.5258248,5.39605245 L23.188012,6.01555249 L21.7296786,0.983937567 C21.584414,0.43706253 21.0005118,0.145104177 20.4906785,0.29181252 L0.911458031,5.87030248 C0.364583358,6.01556708 0.0726246404,6.5994692 0.219332984,7.14634424 L5.8703754,26.8710331 C5.9430077,27.1259571 6.12529938,27.3452831 6.34462543,27.4905331 C6.48989003,27.5631654 6.6721817,27.6357977 6.8544588,27.6357977 C6.96411818,27.6357977 7.03675048,27.6357977 7.14640986,27.5987706 L9.00636832,27.0889373 L9.37095168,29.7506874 C9.40797877,30.0056114 9.55324336,30.2605208 9.77257671,30.4072292 C9.95486839,30.5524937 10.1742017,30.6265479 10.3920767,30.6265479 L10.5373413,30.6265479 L12.4699248,30.3716239 L12.4699248,33.1059995 C12.4699248,33.6528745 12.9071332,34.1271249 13.4910499,34.1271249 L33.8351658,34.1271249 C34.3820409,34.1271249 34.8562909,33.6899166 34.8562909,33.1059995 L34.8548654,12.5055811 C34.8178383,11.9216644 34.3806154,11.484456 33.7967351,11.484456 L33.7965127,11.4843758 Z M6.34301762,21.1458348 L2.44234209,7.54651093 L20.0520811,2.514896 L21.1458311,6.30583376 L7.36421561,8.23841723 C7.10929163,8.27544431 6.85438224,8.42070891 6.70767389,8.64004226 C6.5624093,8.85936102 6.48835513,9.11429229 6.52538222,9.40625064 L8.09338232,20.6711472 L6.34301762,21.1458348 Z M10.6097403,24.0995433 L8.64157351,10.1002715 L26.7981857,7.54818801 L27.3436388,11.4845945 L13.4522837,11.4845945 C12.9054087,11.4845945 12.4311587,11.9218029 12.4311587,12.5057196 L12.4311587,23.8449912 L10.6097403,24.0995433 Z M32.7753147,27.6357102 L14.4735911,27.6357102 L14.4735911,13.4895113 L32.8124986,13.4895113 L32.8124986,27.6357102 L32.7753147,27.6357102 Z"/>
      <path d="M17.2079699 25.5934528L29.9683875 25.5934528C30.2959437 25.5934528 30.5152625 25.1917621 30.2959437 24.9368454L27.1243602 20.4892931C26.9790956 20.2699743 26.6871518 20.2343691 26.5048601 20.4166608L25.3740684 21.5104108C25.1917767 21.6927025 24.8998184 21.6556754 24.7545684 21.4733838L22.0201932 17.7903627C21.8379015 17.5354387 21.4733181 17.5710439 21.3280681 17.8273898L16.8433282 24.9739527C16.6980636 25.2288767 16.8803553 25.5934528 17.2079116 25.5934528L17.2079699 25.5934528zM29.3489603 17.0982303C29.3489603 19.1888971 26.2129601 19.1888971 26.2129601 17.0982303 26.2129601 15.0089854 29.3489603 15.0089854 29.3489603 17.0982303"/>
    </g>
  </g>
</svg>
