<svg xmlns="http://www.w3.org/2000/svg" width="50" height="50" viewBox="0 0 50 50">
  <g fill="none" fill-rule="evenodd">
    <path fill="#377DFF" d="M24.9618574,10.0015243 C24.5030524,10.0255641 24.0744224,10.3485972 23.926523,10.7827979 L20.7224222,20.3925554 L10.7600761,20.3925554 C10.2801371,20.3910515 9.81831853,20.7200965 9.66288507,21.172329 C9.50743654,21.6245845 9.67043072,22.1684605 10.0492471,22.4614765 L17.8912382,28.5106543 L14.675083,38.5050483 C14.5317079,38.960304 14.7052695,39.4981797 15.0901132,39.7806567 C15.4749646,40.0646261 16.0394048,40.073642 16.4333396,39.8031925 L25.0221685,33.7301673 L33.6109975,39.8031925 C34.0048936,40.0736381 34.5708754,40.0646261 34.9542239,39.7806567 C35.3390753,39.4966873 35.512633,38.9588039 35.369254,38.5050483 L32.1530988,28.5106543 L39.9950899,22.4614765 C40.3739063,22.1684913 40.5383923,21.6260846 40.381452,21.172329 C40.2260031,20.7200734 39.7626545,20.3910554 39.284261,20.3925554 L29.3219148,20.3925554 L26.1178141,10.7827979 C25.957837,10.3110028 25.4598009,9.97444591 24.9617415,10.0015243 L24.9618574,10.0015243 Z M9.09705781,11.1554337 C8.49186025,11.1869854 7.96965327,11.7654287 8.0013736,12.3694233 C8.03309392,12.973418 8.6125984,13.4947927 9.21779596,13.4632525 L19.6256176,13.4632525 C20.2368424,13.4722684 20.7983038,12.9193381 20.7983038,12.3093431 C20.7983038,11.6993481 20.236881,11.1464332 19.6256176,11.1554337 L9.09725099,11.1554337 L9.09705781,11.1554337 Z M25.0225163,14.7989796 L27.3950112,21.9070615 C27.5459358,22.3638173 28.0092497,22.7003743 28.4906954,22.7003743 L35.8875974,22.7003743 L30.0937117,27.1748503 C29.7254584,27.4648316 29.5639707,27.9922028 29.7088603,28.4369195 L32.117596,35.9177142 L25.6854402,31.3713111 C25.3005888,31.1023656 24.7451894,31.1023656 24.3603342,31.3713111 L17.9281783,35.9177142 L20.336914,28.4369195 C20.4817998,27.9906642 20.3203121,27.4633277 19.9520626,27.1748503 L14.1581769,22.7003743 L21.5550789,22.7003743 C22.0380315,22.6988703 22.4998501,22.3638173 22.6507631,21.9070615 L25.0225163,14.7989796 Z M14.3009686,16.5433829 C13.6957711,16.5719306 13.1705505,17.1473776 13.1992185,17.7513722 C13.2278943,18.3553669 13.8044161,18.8797417 14.4096136,18.8512017 L19.240685,18.8512017 C19.8519099,18.8602176 20.4133712,18.3072873 20.4133712,17.6972923 C20.4133712,17.0872973 19.8519485,16.5343824 19.240685,16.5433829 L14.3025913,16.5433829 L14.3009686,16.5433829 Z M9.09705858,29.245233 C8.49186102,29.2767847 7.96965404,29.855228 8.00137437,30.4592226 C8.03309469,31.0632173 8.61259917,31.584592 9.21779673,31.5530518 L15.3860665,31.5530518 C15.9972913,31.5620677 16.5587527,31.0091374 16.5587527,30.3991424 C16.5587527,29.7891474 15.99733,29.2362325 15.3860665,29.245233 L9.09879721,29.245233 L9.09705858,29.245233 Z M35.3094066,29.245233 C34.704209,29.2767847 34.182002,29.855228 34.2137223,30.4592226 C34.2454427,31.0632173 34.8249471,31.584592 35.4301447,31.5530518 L38.5135073,31.5530518 C39.1247321,31.5620677 39.6861934,31.0091374 39.6861934,30.3991424 C39.6861934,29.7891474 39.1247707,29.2362325 38.5135073,29.245233 L35.3094066,29.245233 Z M36.4654792,34.6332207 C35.8602816,34.6647724 35.3380746,35.2432156 35.3697949,35.8472103 C35.4014882,36.4512049 35.9810197,36.9725797 36.5862173,36.9410395 L40.8273138,36.9410395 C41.4385386,36.9500554 42,36.3971251 42,35.7871301 C42,35.1771351 41.4385773,34.6242202 40.8273138,34.6332207 L36.4672178,34.6332207 L36.4654792,34.6332207 Z"/>
    <rect width="48" height="48" x="1" y="1" stroke="#377DFF" stroke-width="2" rx="8"/>
  </g>
</svg>
