<svg xmlns="http://www.w3.org/2000/svg" width="50" height="50" viewBox="0 0 50 50">
  <g fill="none" fill-rule="evenodd">
    <rect width="48" height="48" x="1" y="1" stroke="#377DFF" stroke-width="2" rx="8"/>
    <path fill="#377DFF" d="M11.7999999,11 C10.2703199,11 9,12.2445703 9,13.7432432 L9,37.2567568 C9,38.7554297 10.2703199,40 11.7999999,40 L38.1999987,40 C39.7296787,40 41,38.7554297 41,37.2567568 L41,13.7432432 C41,12.2445703 39.7296787,11 38.1999987,11 L11.7999999,11 Z M11.7999999,13.3512534 L38.1999987,13.3512534 C38.4421867,13.3512534 38.5999987,13.5059645 38.5999987,13.7432432 L38.5999987,29.7128378 L34.2499989,25.4510135 C34.0203109,25.224453 33.7077989,25.1004545 33.3827989,25.1050474 C33.057799,25.1096404 32.748439,25.2428209 32.524999,25.4755068 L27.7749992,30.4721284 L20.2501995,23.0998581 C19.9923875,22.8426791 19.6283195,22.7171522 19.2626796,22.7569527 C19.0095556,22.7860389 18.7735996,22.8931978 18.5876796,23.0631182 L11.4000799,29.4924966 L11.4000799,13.7431453 C11.4000799,13.5058665 11.5578919,13.3512534 11.8000799,13.3512534 L11.7999999,13.3512534 Z M27.3999992,14.9189189 C24.9843593,14.9189189 22.9999994,16.8630554 22.9999994,19.2297297 C22.9999994,21.5964041 24.9843593,23.5405405 27.3999992,23.5405405 C29.8156391,23.5405405 31.799999,21.5964041 31.799999,19.2297297 C31.799999,16.8630554 29.8156391,14.9189189 27.3999992,14.9189189 Z M27.1874992,17.2702703 C27.2546872,17.2641489 27.3296872,17.2702703 27.3999993,17.2702703 C28.5187592,17.2702703 29.3999993,18.1336473 29.3999993,19.2297297 C29.3999993,20.3258122 28.5187592,21.1891892 27.3999993,21.1891892 C26.2812392,21.1891892 25.3999993,20.3258122 25.3999993,19.2297297 C25.3999993,18.2025419 26.1687593,17.3697716 27.1875192,17.2702703 L27.1874992,17.2702703 Z M19.3626995,25.5489865 L26.9502992,32.9827838 C27.1799872,33.2078159 27.4924992,33.3333428 27.8174992,33.3287499 C28.1424992,33.3241569 28.4518592,33.1894441 28.6752991,32.9582905 L33.4252989,27.9616689 L38.6004987,33.0319662 L38.6004987,37.2569527 C38.6004987,37.4942315 38.4426867,37.6488446 38.2004987,37.6488446 L11.8004999,37.6488446 C11.5583119,37.6488446 11.4004999,37.4942315 11.4004999,37.2569527 L11.4004999,32.6765203 L19.3626995,25.5489865 Z"/>
  </g>
</svg>
