<svg xmlns="http://www.w3.org/2000/svg" width="50" height="50" viewBox="0 0 50 50">
  <g fill="none" fill-rule="evenodd">
    <rect width="48" height="48" x="1" y="1" stroke="#377DFF" stroke-width="2" rx="8"/>
    <path fill="#377DFF" d="M21.8178963,30.0580641 C21.3374384,30.0580641 20.8581805,29.8740657 20.4925573,29.5084212 C16.8306257,25.8448355 16.8306257,19.8854708 20.4925573,16.2230853 L23.9633977,12.7506145 C25.737546,10.9762461 28.0975075,10 30.6065921,10 C33.1154667,10 35.4744682,10.9774162 37.2473866,12.7506145 C39.021535,14.5249828 40,16.8852369 40,19.3946326 C40,21.9040282 39.022705,24.2631122 37.2473866,26.0362505 C36.5138304,26.7698977 35.3291249,26.7698977 34.5967385,26.0362505 C33.8631823,25.3026033 33.8631823,24.1165808 34.5967385,23.3852737 C35.6619295,22.3187806 36.2501725,20.90072 36.2501725,19.3946626 C36.2501725,17.887525 35.6630995,16.4694345 34.5967385,15.4028513 C32.4651866,13.2710351 28.7470076,13.2710351 26.6156057,15.4028513 L23.1447653,18.874122 C20.9452665,21.0750636 20.9452665,24.6555728 23.1447653,26.8562444 C23.8783216,27.5898916 23.8783216,28.774744 23.1447653,29.5072211 C22.7791421,29.8752298 22.2987142,30.0580641 21.8194263,30.0580641 L21.8178963,30.0580641 Z M19.3934079,40 C16.8845333,40 14.5255318,39.0225234 12.7526136,37.2469849 C10.9784649,35.4749865 10,33.1147624 10,30.6053667 C10,28.0959711 10.977295,25.7368871 12.7502734,23.9637489 C13.4838297,23.2301016 14.6685352,23.2301016 15.4009215,23.9637489 C16.1344778,24.6973961 16.1344778,25.8822485 15.4009215,26.6147256 C14.3345606,27.6800486 13.7474876,29.0992793 13.7474876,30.6065368 C13.7474876,32.1137944 14.3345606,33.5317649 15.4009215,34.597148 C17.5348134,36.7289642 21.2482525,36.7289642 23.3820544,34.597148 L26.5670079,31.4117996 C27.6321989,30.3464766 28.2204418,28.9295861 28.2204418,27.4211885 C28.2204418,25.9140509 27.6333688,24.4959604 26.5670079,23.4293772 C25.8334516,22.6980702 25.8334516,21.5108776 26.5670079,20.7784005 C27.3005641,20.0447533 28.4852697,20.0447533 29.217656,20.7784005 C30.9918044,22.5527688 31.9702694,24.9106227 31.9702694,27.4224185 C31.9702694,29.9316042 30.9929743,32.2917982 29.217656,34.0640364 L26.0327025,37.2493854 C24.2585541,39.0237538 21.9009925,40 19.3919079,40 L19.3934079,40 Z"/>
  </g>
</svg>
