<svg xmlns="http://www.w3.org/2000/svg" width="50" height="50" viewBox="0 0 50 50">
  <g fill="none" fill-rule="evenodd">
    <g fill="#377DFF" transform="translate(7 10)">
      <path d="M28.2797832,5.68887483 L14.5227268,5.68887483 C13.8546007,5.68887483 13.3124996,6.22936231 13.3124996,6.89910206 L13.3124996,13.1519428 C13.3124996,13.8200689 13.8546007,14.36217 14.5227268,14.36217 L28.2797832,14.36217 C28.9479094,14.36217 29.4900105,13.8200689 29.4900105,13.1519428 L29.4900105,6.89910206 C29.4900105,6.22936231 28.9479094,5.68887483 28.2797832,5.68887483 Z M27.069556,11.9828633 L15.7329541,11.9812859 L15.7329541,8.10948663 L27.069556,8.10948663 L27.069556,11.9828633 Z"/>
      <path d="M35.4198819,3.83238625 C35.4198819,1.82792722 33.7934978,0.201704539 31.7890388,0.201704539 L11.0134713,0.201704539 C9.00743893,0.201704539 7.38278955,1.82792722 7.38278955,3.83238625 L7.38278955,6.21185436 L3.71112148,6.21185436 C1.70666245,6.21185436 0.0804409805,7.83807704 0.0804409805,9.84253607 L0.0804409805,24.8098197 C0.0804409805,27.4839781 2.24876357,29.6507286 4.92134871,29.6507286 L29.6507286,29.6507286 C32.8370149,29.6507286 35.4198819,27.0679827 35.4198819,23.8815754 L35.4198819,3.83238625 Z M7.38278955,24.8096583 C7.38278955,26.156964 6.28918788,27.250606 4.9418419,27.250606 C3.59449591,27.250606 2.50089424,26.1570043 2.50089424,24.8096583 L2.50089424,9.8423747 C2.50089424,9.17424859 3.04299536,8.63214747 3.71112148,8.63214747 L7.38278955,8.63214747 L7.38278955,24.8096583 Z M33.0404138,23.8814947 L33.0388405,23.8814947 C33.0388405,25.7314884 31.5402564,27.2301128 29.6917957,27.2301128 L9.11793268,27.2301128 C9.54183494,26.494214 9.76403266,25.6590362 9.76245936,24.8096583 L9.76245936,3.83238625 C9.76245936,3.16426013 10.3045605,2.62215901 10.9726866,2.62215901 L31.7894019,2.62215901 C32.457528,2.62215901 32.9996291,3.16426013 32.9996291,3.83238625 L33.0404138,23.8814947 Z"/>
      <path d="M28.2797832 16.7826245L14.5227268 16.7826245C13.8546007 16.7826245 13.3124996 17.323112 13.3124996 17.9928517 13.3124996 18.6609778 13.8546007 19.203079 14.5227268 19.203079L28.2797832 19.203079C28.9479094 19.203079 29.4900105 18.6609778 29.4900105 17.9928517 29.4900105 17.323112 28.9479094 16.7826245 28.2797832 16.7826245zM28.2797832 21.6235334L14.5227268 21.6235334C13.8546007 21.6235334 13.3124996 22.1640209 13.3124996 22.8337607 13.3124996 23.5018868 13.8546007 24.0439879 14.5227268 24.0439879L28.2797832 24.0439879C28.9479094 24.0439879 29.4900105 23.5018868 29.4900105 22.8337607 29.4900105 22.1640209 28.9479094 21.6235334 28.2797832 21.6235334z"/>
    </g>
    <rect width="48" height="48" x="1" y="1" stroke="#377DFF" stroke-width="2" rx="8"/>
  </g>
</svg>
