<svg xmlns="http://www.w3.org/2000/svg" width="50" height="50" viewBox="0 0 50 50">
  <g fill="none" fill-rule="evenodd">
    <rect width="48" height="48" x="1" y="1" stroke="#377DFF" stroke-width="2" rx="8"/>
    <path fill="#377DFF" d="M6.15842105 11.9223684C2.87710526 11.9223684.208684474 9.25263158.208684474 5.97368421.208684474 2.69342105 2.87736842.0239473684 6.15842105.0239473684 9.43868421.0239473684 12.1081579 2.69263158 12.1081579 5.97368421 12.1081579 9.25289474 9.43842105 11.9223684 6.15842105 11.9223684zM6.15842105 2.82894737C4.42528947 2.82894737 3.015 4.23931579 3.015 5.97236842 3.015 7.7055 4.42536842 9.11473684 6.15842105 9.11473684 7.89155263 9.11473684 9.30184211 7.70436842 9.30184211 5.97236842 9.30184211 4.23923684 7.89147368 2.82894737 6.15842105 2.82894737zM18.7757895 24.7831587C15.4955263 24.7831587 12.8271053 22.1144737 12.8271053 18.8344737 12.8271053 15.5531579 15.4957895 12.8847368 18.7757895 12.8847368 22.0571053 12.8847368 24.7255266 15.5534211 24.7255266 18.8344737 24.7265553 22.1136842 22.0568421 24.7831587 18.7757895 24.7831587zM18.7757895 15.6897368C17.0426579 15.6897368 15.6334211 17.0990789 15.6334211 18.8331579 15.6334211 20.5662895 17.0427632 21.9755263 18.7757895 21.9755263 20.5099474 21.9755263 21.9192111 20.5661842 21.9192111 18.8331579 21.9202395 17.1000263 20.5098684 15.6897368 18.7757895 15.6897368zM4.22789474 21.9994737C3.86913158 21.9994737 3.50934211 21.8627553 3.23592105 21.5882895 2.68802632 21.0403947 2.68802632 20.1522368 3.23592105 19.6043158L19.3009211 3.54036842C19.8477895 2.99247368 20.7369737 2.99247368 21.2848947 3.54036842 21.8338158 4.08826316 21.8338158 4.97744737 21.2848947 5.52434211L5.22094737 21.5872368C4.94647368 21.8617105 4.58773684 21.9994737 4.22794737 21.9994737L4.22789474 21.9994737z" transform="translate(12 13)"/>
  </g>
</svg>
