<svg xmlns="http://www.w3.org/2000/svg" width="50" height="50" viewBox="0 0 50 50">
  <g fill="none" fill-rule="evenodd">
    <rect width="48" height="48" x="1" y="1" stroke="#377DFF" stroke-width="2" rx="8"/>
    <path fill="#377DFF" d="M14.5,13 C12.5772273,13 11,14.5490625 11,16.4375 L11,34.5625 C11,36.4509375 12.5772273,38 14.5,38 L35.5,38 C37.4227733,38 39,36.4509375 39,34.5625 L39,20.5 C39,18.9362813 37.9174506,17.6081563 36.454546,17.196875 L36.454546,16.4375937 C36.454546,14.5491562 34.8773187,13 32.9545459,13 L14.5,13 Z M14.5000001,14.875 L18.9545456,14.875 C19.8519138,14.875 20.5454548,15.5561562 20.5454548,16.4375 L20.5454548,18.9375 L35.5000005,18.9375 C36.3973687,18.9375 37.0909097,19.6186563 37.0909097,20.5 L37.0909097,34.5625 C37.0909097,35.4438437 36.3973687,36.125 35.5000005,36.125 L14.5000001,36.125 C13.6026319,36.125 12.909091,35.4438437 12.909091,34.5625 L12.909091,16.4375 C12.909091,15.5561562 13.6026319,14.875 14.5000001,14.875 Z M22.0654093,14.875 L25.9545458,14.875 C26.851914,14.875 27.5454549,15.5561562 27.5454549,16.4375 L27.5454549,17.0625 L22.4545457,17.0625 L22.4545457,16.4375 C22.4545457,15.8759687 22.3128562,15.3449687 22.0655048,14.875 L22.0654093,14.875 Z M29.0654095,14.875 L32.9545459,14.875 C33.8519141,14.875 34.5454551,15.5561562 34.5454551,16.4375 L34.5454551,17.0625 L29.4545459,17.0625 L29.4545459,16.4375 C29.4545459,15.8759687 29.3128563,15.3449687 29.0655049,14.875 L29.0654095,14.875 Z"/>
  </g>
</svg>
