<svg xmlns="http://www.w3.org/2000/svg" width="50" height="50" viewBox="0 0 50 50">
  <g fill="none" fill-rule="evenodd">
    <rect width="48" height="48" x="1" y="1" stroke="#377DFF" stroke-width="2" rx="8"/>
    <g fill="#377DFF" transform="translate(11 11)">
      <path d="M22.4097018,0.150000012 L5.79030046,0.150000012 C2.75970022,0.150000012 0.270899422,2.60976021 0.270899422,5.66940045 L0.270899422,17.1888014 C0.270899422,20.2194016 2.73066022,22.7082018 5.79030046,22.7082018 L6.05983248,22.7082018 L6.05983248,25.377722 C6.05983248,26.7582024 6.90007255,27.9582022 8.19031265,28.4680223 C8.58055268,28.6180223 8.97079271,28.6777883 9.35983274,28.6777883 C10.2903128,28.6777883 11.1903129,28.2875482 11.8195929,27.5375482 L16.0501933,22.7069478 L22.4098938,22.7069478 C25.440494,22.7069478 27.9292942,20.2471876 27.9292942,17.1875474 L27.9304642,5.66904645 C27.9304642,2.60934621 25.440224,0.149646012 22.4098638,0.149646012 L22.4097018,0.150000012 Z M25.049942,17.1903014 C25.049942,18.6598215 23.8499419,19.8305416 22.4097018,19.8305416 L15.4194012,19.8305416 C14.9998812,19.8305416 14.6096412,20.0110096 14.3389211,20.3110216 L9.69012077,25.650122 C9.54012076,25.8305901 9.33036074,25.8305901 9.20964073,25.769654 C9.09010872,25.709888 8.94010871,25.619654 8.94010871,25.379414 L8.94010871,21.2697137 C8.94010871,20.4892336 8.30962866,19.8294736 7.4998686,19.8294736 L5.79010846,19.8294736 C4.32058834,19.8294736 3.14986825,18.6294735 3.14986825,17.1892334 L3.14986825,5.66983245 C3.14986825,4.20031233 4.34986835,3.02959224 5.79010846,3.02959224 L22.4095098,3.02959224 C23.8790299,3.02959224 25.049942,4.22959234 25.049942,5.66983245 L25.049942,17.1903014 Z"/>
      <path d="M10.2306008 6.56940052C8.49036067 6.56940052 7.08060056 7.97916063 7.08060056 9.71940077 7.08060056 11.3694009 8.34036066 12.688921 9.93060079 12.838801 9.60012076 13.4388011 9.03060072 14.0692811 8.01108064 14.6692812 7.74154862 14.8192812 7.5610806 15.1192812 7.5610806 15.4497612 7.5610806 16.0802413 8.22084065 16.5302413 8.7915607 16.2595213 10.5013208 15.4790412 13.3512611 13.6192811 13.3512611 9.71922077 13.3500911 7.94970063 11.969611 6.56922052 10.2306608 6.56922052L10.2306008 6.56940052zM17.9694014 6.56940052C16.2291613 6.56940052 14.8194012 7.97916063 14.8194012 9.71940077 14.8194012 11.3694009 16.0791613 12.688921 17.6694014 12.838801 17.3389214 13.4388011 16.7694013 14.0692811 15.7498813 14.6692812 15.4803492 14.8192812 15.2998812 15.1192812 15.2998812 15.4497612 15.2998812 16.0802413 15.9596413 16.5302413 16.5303613 16.2595213 18.2401214 15.4790412 21.0900617 13.6192811 21.0900617 9.71922077 21.1193597 7.94970063 19.7095816 6.56922052 17.9694614 6.56922052L17.9694014 6.56940052z"/>
    </g>
  </g>
</svg>
