<svg xmlns="http://www.w3.org/2000/svg" width="50" height="50" viewBox="0 0 50 50">
  <g fill="none" fill-rule="evenodd">
    <rect width="48" height="48" x="1" y="1" stroke="#377DFF" stroke-width="2" rx="8"/>
    <path fill="#377DFF" d="M36.12463,12 L14.87497,12 C13.8406265,12 13,12.8559244 13,13.9090909 L13,19 C13,20.0531665 13.8406265,20.9090909 14.87497,20.9090909 C15.9093135,20.9090909 16.74994,20.0531665 16.74994,19 L16.74994,15.8181818 L23.62503,15.8181818 L23.62503,36.1818182 L19.87509,36.1818182 C18.8407465,36.1818182 18.00012,37.0377425 18.00012,38.0909091 C18.00012,39.1440756 18.8407465,40 19.87509,40 L31.12491,40 C32.1592535,40 32.99988,39.1440756 32.99988,38.0909091 C32.99988,37.0377425 32.1592535,36.1818182 31.12491,36.1818182 L27.37497,36.1818182 L27.37497,15.8181818 L34.25006,15.8181818 L34.25006,19 C34.25006,20.0531665 35.0906865,20.9090909 36.12503,20.9090909 C37.1593735,20.9090909 38,20.0531665 38,19 L38,13.9090909 C38,12.8559244 37.1593735,12 36.12503,12 L36.12463,12 Z"/>
  </g>
</svg>
