<svg xmlns="http://www.w3.org/2000/svg" width="50" height="50" viewBox="0 0 50 50">
  <g fill="none" fill-rule="evenodd">
    <rect width="48" height="48" x="1" y="1" stroke="#377DFF" stroke-width="2" rx="8"/>
    <g fill="#377DFF" transform="translate(10 13)">
      <path d="M26.9318166.0320454526L3.06818164.0320454526C1.42090901.0320454526.0852272676 1.36772719.0852272676 3.01499982L.0852272676 14.9468173C.0852272676 16.5940899 1.42090901 17.9297717 3.06818164 17.9297717L26.9318166 17.9297717C28.5790892 17.9297717 29.9147709 16.5940899 29.9147709 14.9468173L29.9147709 3.01499982C29.9147709 2.2239885 29.6004937 1.46492037 29.0411915.905624946 28.4818892.346329525 27.7228279.0320454526 26.9318166.0320454526zM27.9225665 14.9468173C27.9225665 15.4941468 27.479112 15.9375672 26.9318166 15.9375672L3.06818164 15.9375672C2.52085212 15.9375672 2.07743169 15.4941127 2.07743169 14.9468173L2.07743169 3.01499982C2.07743169 2.46767031 2.52088621 2.02424988 3.06818164 2.02424988L26.9318166 2.02424988C27.4791461 2.02424988 27.9225665 2.4677044 27.9225665 3.01499982L27.9225665 14.9468173zM28.9240892 21.9034078L5.87011329 21.9034078C5.38537468 20.5344533 3.98447704 19.7141238 2.55289758 19.9591693 1.12135255 20.2055306.0759889727 21.4466578.0759889727 22.89951.0759889727 24.3523622 1.12135255 25.5934757 2.55289758 25.8398507 3.98444294 26.0848791 5.38537468 25.2645667 5.87011329 23.8956122L28.9240892 23.8956122C29.4740778 23.8956122 29.9201914 23.4494986 29.9201914 22.89951 29.9201914 22.3495214 29.4740778 21.9034078 28.9240892 21.9034078zM3.06818164 23.8956122C2.66734075 23.8956122 2.30645441 23.6545793 2.15331805 23.2843622 1.99884534 22.9141691 2.0840726 22.4880328 2.36771918 22.2043623 2.65136575 21.9207157 3.07749186 21.8354987 3.44771911 21.9899612 3.81791227 22.1431044 4.05896908 22.5039839 4.05896908 22.9048248 4.05896908 23.4521543 3.61551456 23.8955747 3.06821914 23.8955747L3.06818164 23.8956122z"/>
      <path d="M17.9935217,7.10590867 L14.9999309,5.3800565 C14.3833628,5.02714743 13.6256583,5.02851106 13.0117492,5.38405195 C12.3965106,5.73962011 12.0183061,6.3961428 12.0169208,7.10591549 L12.0169208,10.5470516 C12.0116481,11.2594834 12.3884993,11.9213243 13.006397,12.278222 C13.6229651,12.6351197 14.3846923,12.6337902 14.9999309,12.272897 L17.9828853,10.5470448 C18.5941353,10.1901471 18.9709761,9.53495398 18.9709761,8.82651084 C18.9709761,8.1180677 18.5941012,7.46287456 17.9828853,7.10597685 L17.9935217,7.10590867 Z M14.0198855,10.5470448 L14.0198855,7.10590867 L17.0028399,8.83176084 L14.0198855,10.5470448 Z"/>
    </g>
  </g>
</svg>
